<svg xmlns="http://www.w3.org/2000/svg" width="620" height="484" viewBox="0 0 620 484">
  <defs>
    <style>
      text {
        font-family: 'SF Mono', 'Cascadia Code', 'Fira Code', Menlo, Consolas, monospace;
        font-size: 14px;
      }
    </style>
  </defs>

  <!-- Window frame -->
  <rect width="620" height="484" rx="8" fill="#1e1e2e"/>
  <rect width="620" height="32" rx="8" fill="#313244"/>
  <rect x="0" y="24" width="620" height="8" fill="#313244"/>

  <!-- Window buttons -->
  <circle cx="20" cy="16" r="6" fill="#f38ba8"/>
  <circle cx="40" cy="16" r="6" fill="#f9e2af"/>
  <circle cx="60" cy="16" r="6" fill="#a6e3a1"/>

  <!-- Title -->
  <text x="310.0" y="20" fill="#6c7086" font-family="SF Mono, Cascadia Code, Fira Code, Menlo, Consolas, monospace" font-size="12" text-anchor="middle">awspss</text>

  <!-- Content -->
  <text x="16" y="48" fill="#89b4fa" font-weight="normal">$ </text><text x="32.8" y="48" fill="#cdd6f4" font-weight="normal">awspss sw</text><text x="16.0" y="68" fill="#6c7086" font-weight="normal">Using cached token.</text><text x="16.0" y="108" fill="#89dceb" font-weight="bold">Select AWS Account:</text><text x="16" y="128" fill="#a6e3a1" font-weight="bold">&gt; </text><text x="32.8" y="128" fill="#a6e3a1" font-weight="bold">production (111122223333)</text><text x="16" y="148" fill="#cdd6f4" font-weight="normal">  </text><text x="32.8" y="148" fill="#cdd6f4" font-weight="normal">staging (444455556666)</text><text x="16" y="168" fill="#cdd6f4" font-weight="normal">  </text><text x="32.8" y="168" fill="#cdd6f4" font-weight="normal">development (777788889999)</text><text x="16" y="188" fill="#cdd6f4" font-weight="normal">  </text><text x="32.8" y="188" fill="#cdd6f4" font-weight="normal">shared-services (000011112222)</text><text x="16" y="228" fill="#89dceb" font-weight="normal">&gt; </text><text x="32.8" y="228" fill="#cdd6f4" font-weight="normal">prod</text><text x="16.0" y="268" fill="#89dceb" font-weight="bold">[production] Select Permission Set:</text><text x="16" y="288" fill="#a6e3a1" font-weight="bold">&gt; </text><text x="32.8" y="288" fill="#a6e3a1" font-weight="bold">AdministratorAccess</text><text x="16" y="308" fill="#cdd6f4" font-weight="normal">  </text><text x="32.8" y="308" fill="#cdd6f4" font-weight="normal">ReadOnlyAccess</text><text x="16" y="328" fill="#cdd6f4" font-weight="normal">  </text><text x="32.8" y="328" fill="#cdd6f4" font-weight="normal">PowerUserAccess</text><text x="16" y="368" fill="#89dceb" font-weight="normal">&gt; </text><text x="32.8" y="368" fill="#cdd6f4" font-weight="normal">admin</text><text x="16.0" y="408" fill="#6c7086" font-weight="normal">Fetching credentials for production (111122223333) / AdministratorAccess...</text><text x="16.0" y="448" fill="#a6e3a1" font-weight="bold">Credentials set.</text>
</svg>